<?xml version="1.0" encoding="UTF-8" standalone="no"?>
<!-- Created with Inkscape (http://www.inkscape.org/) -->

<svg
   xmlns:dc="http://purl.org/dc/elements/1.1/"
   xmlns:cc="http://creativecommons.org/ns#"
   xmlns:rdf="http://www.w3.org/1999/02/22-rdf-syntax-ns#"
   xmlns:svg="http://www.w3.org/2000/svg"
   xmlns="http://www.w3.org/2000/svg"
   xmlns:sodipodi="http://sodipodi.sourceforge.net/DTD/sodipodi-0.dtd"
   xmlns:inkscape="http://www.inkscape.org/namespaces/inkscape"
   width="210mm"
   height="297mm"
   viewBox="0 0 744.09448819 1052.3622047"
   id="svg2"
   version="1.1"
   inkscape:version="0.91 r13725"
   sodipodi:docname="none.svg">
  <defs
     id="defs4" />
  <sodipodi:namedview
     id="base"
     pagecolor="#ffffff"
     bordercolor="#666666"
     borderopacity="1.0"
     inkscape:pageopacity="0.0"
     inkscape:pageshadow="2"
     inkscape:zoom="1.4"
     inkscape:cx="331.96095"
     inkscape:cy="819.3783"
     inkscape:document-units="px"
     inkscape:current-layer="layer1"
     showgrid="false"
     inkscape:window-width="1276"
     inkscape:window-height="755"
     inkscape:window-x="4"
     inkscape:window-y="1"
     inkscape:window-maximized="1" />
  <metadata
     id="metadata7">
    <rdf:RDF>
      <cc:Work
         rdf:about="">
        <dc:format>image/svg+xml</dc:format>
        <dc:type
           rdf:resource="http://purl.org/dc/dcmitype/StillImage" />
        <dc:title></dc:title>
      </cc:Work>
    </rdf:RDF>
  </metadata>
  <g
     inkscape:label="Layer 1"
     inkscape:groupmode="layer"
     id="layer1">
    <rect
       style="opacity:1;fill:#00ffff;fill-opacity:1;fill-rule:evenodd;stroke:none;stroke-width:0.80000001;stroke-linecap:round;stroke-linejoin:miter;stroke-miterlimit:4;stroke-dasharray:none;stroke-dashoffset:0;stroke-opacity:1"
       id="rect4234"
       width="556"
       height="180"
       x="98.57267"
       y="53.746502" />
    <g
       id="g4242">
      <path
         id="path4140"
         d="M 98.572266 198.83984 L 98.572266 233.13086 L 208.63477 233.13086 L 145 106.31641 L 98.572266 198.83984 z "
         style="opacity:1;fill:#939dac;fill-opacity:1;fill-rule:evenodd;stroke:#b3b3b3;stroke-width:1.23128223;stroke-linecap:round;stroke-linejoin:miter;stroke-miterlimit:4;stroke-dasharray:none;stroke-dashoffset:0;stroke-opacity:1" />
      <path
         transform="matrix(1.3382261,0,0,1.2417689,21.450879,-53.499965)"
         inkscape:transform-center-y="-15.897709"
         d="m 185.7776,230.82426 -88.698058,-1e-5 44.349028,-76.81477 z"
         inkscape:randomized="0"
         inkscape:rounded="0"
         inkscape:flatsided="true"
         sodipodi:arg2="1.5707963"
         sodipodi:arg1="0.52359878"
         sodipodi:r2="25.604925"
         sodipodi:r1="51.20985"
         sodipodi:cy="205.21933"
         sodipodi:cx="141.42857"
         sodipodi:sides="3"
         id="path4142"
         style="opacity:1;fill:#939dac;fill-opacity:1;fill-rule:evenodd;stroke:#b3b3b3;stroke-width:0.79978549;stroke-linecap:round;stroke-linejoin:miter;stroke-miterlimit:4;stroke-dasharray:none;stroke-dashoffset:0;stroke-opacity:1"
         sodipodi:type="star" />
      <path
         sodipodi:type="star"
         style="opacity:1;fill:#939dac;fill-opacity:1;fill-rule:evenodd;stroke:#b3b3b3;stroke-width:0.80000001;stroke-linecap:round;stroke-linejoin:miter;stroke-miterlimit:4;stroke-dasharray:none;stroke-dashoffset:0;stroke-opacity:1"
         id="path4144"
         sodipodi:sides="3"
         sodipodi:cx="141.42857"
         sodipodi:cy="205.21933"
         sodipodi:r1="51.20985"
         sodipodi:r2="25.604925"
         sodipodi:arg1="0.52359878"
         sodipodi:arg2="1.5707963"
         inkscape:flatsided="true"
         inkscape:rounded="0"
         inkscape:randomized="0"
         d="m 185.7776,230.82426 -88.698058,-1e-5 44.349028,-76.81477 z"
         inkscape:transform-center-y="-11.135796"
         transform="matrix(1.2254841,0,0,0.86981669,109.53868,32.355627)" />
      <path
         style="fill:#ffffff;fill-rule:evenodd;stroke:#b3b3b3;stroke-width:0.5;stroke-linecap:butt;stroke-linejoin:miter;stroke-miterlimit:4;stroke-dasharray:none;stroke-opacity:1"
         d="m 145.08999,106.45409 -20.26786,40.56728 10.80357,-10.38871 6.78572,9.28571 9.28571,-10.35714 12.87787,10.12627 z"
         id="path4146"
         inkscape:connector-curvature="0"
         sodipodi:nodetypes="ccccccc" />
      <path
         inkscape:connector-curvature="0"
         id="path4148"
         d="m 210.80426,137.88266 -20.625,33.39285 11.51785,-7.05357 7.76787,9.91071 9.99999,-8.08035 12.67857,6.51786 z"
         style="fill:#ffffff;fill-rule:evenodd;stroke:#b3b3b3;stroke-width:0.5;stroke-linecap:butt;stroke-linejoin:miter;stroke-miterlimit:4;stroke-dasharray:none;stroke-opacity:1"
         sodipodi:nodetypes="ccccccc" />
      <path
         inkscape:connector-curvature="0"
         id="path4150"
         d="m 282.8456,166.79828 -18.4375,22.56696 11.29464,-4.26339 6.07144,7.49999 8.6607,-7.18749 9.08482,1.78572 z"
         style="fill:#ffffff;fill-rule:evenodd;stroke:#b3b3b3;stroke-width:0.5;stroke-linecap:butt;stroke-linejoin:miter;stroke-miterlimit:4;stroke-dasharray:none;stroke-opacity:1"
         sodipodi:nodetypes="ccccccc" />
    </g>
    <g
       id="g4250">
      <path
         id="path4172"
         d="M 653.95703 233.13086 L 653.95703 195.62891 L 609.14062 106.31641 L 545.50586 233.13086 L 653.95703 233.13086 z "
         style="opacity:1;fill:#939dac;fill-opacity:1;fill-rule:evenodd;stroke:#b3b3b3;stroke-width:1.23128223;stroke-linecap:round;stroke-linejoin:miter;stroke-miterlimit:4;stroke-dasharray:none;stroke-dashoffset:0;stroke-opacity:1" />
      <path
         sodipodi:type="star"
         style="opacity:1;fill:#939dac;fill-opacity:1;fill-rule:evenodd;stroke:#b3b3b3;stroke-width:0.79978549;stroke-linecap:round;stroke-linejoin:miter;stroke-miterlimit:4;stroke-dasharray:none;stroke-dashoffset:0;stroke-opacity:1"
         id="path4174"
         sodipodi:sides="3"
         sodipodi:cx="141.42857"
         sodipodi:cy="205.21933"
         sodipodi:r1="51.20985"
         sodipodi:r2="25.604925"
         sodipodi:arg1="0.52359878"
         sodipodi:arg2="1.5707963"
         inkscape:flatsided="true"
         inkscape:rounded="0"
         inkscape:randomized="0"
         d="m 185.7776,230.82426 -88.698058,-1e-5 44.349028,-76.81477 z"
         inkscape:transform-center-y="-15.897709"
         transform="matrix(-1.3382261,0,0,1.2417689,732.68979,-53.499965)" />
      <path
         transform="matrix(-1.2254841,0,0,0.86981669,644.60199,32.355627)"
         inkscape:transform-center-y="-11.135796"
         d="m 185.7776,230.82426 -88.698058,-1e-5 44.349028,-76.81477 z"
         inkscape:randomized="0"
         inkscape:rounded="0"
         inkscape:flatsided="true"
         sodipodi:arg2="1.5707963"
         sodipodi:arg1="0.52359878"
         sodipodi:r2="25.604925"
         sodipodi:r1="51.20985"
         sodipodi:cy="205.21933"
         sodipodi:cx="141.42857"
         sodipodi:sides="3"
         id="path4176"
         style="opacity:1;fill:#939dac;fill-opacity:1;fill-rule:evenodd;stroke:#b3b3b3;stroke-width:0.80000001;stroke-linecap:round;stroke-linejoin:miter;stroke-miterlimit:4;stroke-dasharray:none;stroke-dashoffset:0;stroke-opacity:1"
         sodipodi:type="star" />
      <path
         sodipodi:nodetypes="ccccccc"
         inkscape:connector-curvature="0"
         id="path4178"
         d="m 609.05068,106.45409 20.26786,40.56728 -10.80357,-10.38871 -6.78572,9.28571 -9.28571,-10.35714 -12.87787,10.12627 z"
         style="fill:#ffffff;fill-rule:evenodd;stroke:#b3b3b3;stroke-width:0.5;stroke-linecap:butt;stroke-linejoin:miter;stroke-miterlimit:4;stroke-dasharray:none;stroke-opacity:1" />
      <path
         sodipodi:nodetypes="ccccccc"
         style="fill:#ffffff;fill-rule:evenodd;stroke:#b3b3b3;stroke-width:0.5;stroke-linecap:butt;stroke-linejoin:miter;stroke-miterlimit:4;stroke-dasharray:none;stroke-opacity:1"
         d="m 543.33641,137.88266 20.625,33.39285 -11.51785,-7.05357 -7.76787,9.91071 -9.99999,-8.08035 -12.67857,6.51786 z"
         id="path4180"
         inkscape:connector-curvature="0" />
      <path
         sodipodi:nodetypes="ccccccc"
         style="fill:#ffffff;fill-rule:evenodd;stroke:#b3b3b3;stroke-width:0.5;stroke-linecap:butt;stroke-linejoin:miter;stroke-miterlimit:4;stroke-dasharray:none;stroke-opacity:1"
         d="m 471.29507,166.79828 18.4375,22.56696 -11.29464,-4.26339 -6.07144,7.49999 -8.6607,-7.18749 -9.08482,1.78572 z"
         id="path4182"
         inkscape:connector-curvature="0" />
    </g>
    <path
       style="color:#000000;clip-rule:nonzero;display:inline;overflow:visible;visibility:visible;opacity:1;isolation:auto;mix-blend-mode:normal;color-interpolation:sRGB;color-interpolation-filters:linearRGB;solid-color:#000000;solid-opacity:1;fill:#ffffff;fill-opacity:1;fill-rule:nonzero;stroke:#00caca;stroke-width:0.2;stroke-linecap:butt;stroke-linejoin:miter;stroke-miterlimit:4;stroke-dasharray:none;stroke-dashoffset:0;stroke-opacity:1;color-rendering:auto;image-rendering:auto;shape-rendering:auto;text-rendering:auto;enable-background:accumulate"
       d="M 205 85.933594 A 20.714285 15.357142 0 0 0 185.77734 95.599609 A 16.428572 10.357142 0 0 0 181.42773 95.21875 A 16.428572 10.357142 0 0 0 165 105.57617 A 16.428572 10.357142 0 0 0 181.42773 115.93359 A 16.428572 10.357142 0 0 0 192.23242 113.36133 A 20.714285 15.357142 0 0 0 205 116.64844 A 20.714285 15.357142 0 0 0 214.02148 115.10156 A 25.714285 10 0 0 0 236.42773 120.21875 A 25.714285 10 0 0 0 262.14258 110.21875 A 25.714285 10 0 0 0 236.42773 100.21875 A 25.714285 10 0 0 0 225.70703 101.14258 A 20.714285 15.357142 0 0 0 205 85.933594 z "
       id="path4258" />
    <path
       id="path4265"
       d="m 346.42829,71.64788 a 20.714285,15.357142 0 0 1 19.22266,9.666015 16.428572,10.357142 0 0 1 4.34961,-0.380859 16.428572,10.357142 0 0 1 16.42773,10.35742 16.428572,10.357142 0 0 1 -16.42773,10.357424 16.428572,10.357142 0 0 1 -10.80469,-2.572263 20.714285,15.357142 0 0 1 -12.76758,3.287113 20.714285,15.357142 0 0 1 -9.02148,-1.54688 25.714285,10 0 0 1 -22.40625,5.11719 25.714285,10 0 0 1 -25.71485,-10.000004 25.714285,10 0 0 1 25.71485,-10 25.714285,10 0 0 1 10.7207,0.92383 20.714285,15.357142 0 0 1 20.70703,-15.208986 z"
       style="color:#000000;clip-rule:nonzero;display:inline;overflow:visible;visibility:visible;opacity:1;isolation:auto;mix-blend-mode:normal;color-interpolation:sRGB;color-interpolation-filters:linearRGB;solid-color:#000000;solid-opacity:1;fill:#ffffff;fill-opacity:1;fill-rule:nonzero;stroke:#00caca;stroke-width:0.2;stroke-linecap:butt;stroke-linejoin:miter;stroke-miterlimit:4;stroke-dasharray:none;stroke-dashoffset:0;stroke-opacity:1;color-rendering:auto;image-rendering:auto;shape-rendering:auto;text-rendering:auto;enable-background:accumulate"
       inkscape:connector-curvature="0" />
    <path
       inkscape:connector-curvature="0"
       style="color:#000000;clip-rule:nonzero;display:inline;overflow:visible;visibility:visible;opacity:1;isolation:auto;mix-blend-mode:normal;color-interpolation:sRGB;color-interpolation-filters:linearRGB;solid-color:#000000;solid-opacity:1;fill:#ffffff;fill-opacity:1;fill-rule:nonzero;stroke:#00caca;stroke-width:0.2;stroke-linecap:butt;stroke-linejoin:miter;stroke-miterlimit:4;stroke-dasharray:none;stroke-dashoffset:0;stroke-opacity:1;color-rendering:auto;image-rendering:auto;shape-rendering:auto;text-rendering:auto;enable-background:accumulate"
       d="m 431.42857,150.93304 a 20.714285,15.357142 0 0 1 -19.22266,-9.66602 16.428572,10.357142 0 0 1 -4.34961,0.38086 16.428572,10.357142 0 0 1 -16.42773,-10.35742 16.428572,10.357142 0 0 1 16.42773,-10.35742 16.428572,10.357142 0 0 1 10.80469,2.57226 20.714285,15.357142 0 0 1 12.76758,-3.28711 20.714285,15.357142 0 0 1 9.02148,1.54688 25.714285,10 0 0 1 22.40625,-5.11719 25.714285,10 0 0 1 25.71485,10 25.714285,10 0 0 1 -25.71485,10 25.714285,10 0 0 1 -10.7207,-0.92383 20.714285,15.357142 0 0 1 -20.70703,15.20899 z"
       id="path4267" />
  </g>
</svg>
