<?xml version="1.0" encoding="UTF-8" standalone="no"?>
<!-- Created with Inkscape (http://www.inkscape.org/) -->

<svg
   xmlns:dc="http://purl.org/dc/elements/1.1/"
   xmlns:cc="http://creativecommons.org/ns#"
   xmlns:rdf="http://www.w3.org/1999/02/22-rdf-syntax-ns#"
   xmlns:svg="http://www.w3.org/2000/svg"
   xmlns="http://www.w3.org/2000/svg"
   xmlns:sodipodi="http://sodipodi.sourceforge.net/DTD/sodipodi-0.dtd"
   xmlns:inkscape="http://www.inkscape.org/namespaces/inkscape"
   width="210mm"
   height="297mm"
   viewBox="0 0 744.09448819 1052.3622047"
   id="svg2"
   version="1.1"
   inkscape:version="0.91 r13725"
   sodipodi:docname="none_sc.svg"
   inkscape:export-filename="/Users/jzelar/Documents/Projects/Sci-cfp/start-up-2017/workspace/sci_cfp/cfp/static/cfp/img/none_fb.png"
   inkscape:export-xdpi="97.014801"
   inkscape:export-ydpi="97.014801">
  <defs
     id="defs4" />
  <sodipodi:namedview
     id="base"
     pagecolor="#ffffff"
     bordercolor="#666666"
     borderopacity="1.0"
     inkscape:pageopacity="0.0"
     inkscape:pageshadow="2"
     inkscape:zoom="0.98994949"
     inkscape:cx="291.84136"
     inkscape:cy="820.46509"
     inkscape:document-units="px"
     inkscape:current-layer="layer1"
     showgrid="false"
     inkscape:window-width="1276"
     inkscape:window-height="755"
     inkscape:window-x="4"
     inkscape:window-y="1"
     inkscape:window-maximized="1" />
  <metadata
     id="metadata7">
    <rdf:RDF>
      <cc:Work
         rdf:about="">
        <dc:format>image/svg+xml</dc:format>
        <dc:type
           rdf:resource="http://purl.org/dc/dcmitype/StillImage" />
        <dc:title></dc:title>
      </cc:Work>
    </rdf:RDF>
  </metadata>
  <g
     inkscape:label="Layer 1"
     inkscape:groupmode="layer"
     id="layer1">
    <rect
       style="opacity:1;fill:#00ffff;fill-opacity:1;fill-rule:evenodd;stroke:none;stroke-width:0.80000001;stroke-linecap:round;stroke-linejoin:miter;stroke-miterlimit:4;stroke-dasharray:none;stroke-dashoffset:0;stroke-opacity:1"
       id="rect4234"
       width="556"
       height="292.14285"
       x="82.57267"
       y="53.746502"
       inkscape:export-xdpi="97.02787"
       inkscape:export-ydpi="97.02787" />
    <g
       id="g4242"
       inkscape:export-xdpi="97.02787"
       inkscape:export-ydpi="97.02787"
       transform="matrix(1,0,0,1.2979559,-16,0.88072664)">
      <path
         id="path4140"
         d="m 98.572266,198.83984 0,34.29102 110.062504,0 L 145,106.31641 98.572266,198.83984 Z"
         style="opacity:1;fill:#939dac;fill-opacity:1;fill-rule:evenodd;stroke:#b3b3b3;stroke-width:1.08075607;stroke-linecap:round;stroke-linejoin:miter;stroke-miterlimit:4;stroke-dasharray:none;stroke-dashoffset:0;stroke-opacity:1"
         inkscape:connector-curvature="0" />
      <path
         transform="matrix(1.3382261,0,0,1.2417689,21.450879,-53.499965)"
         inkscape:transform-center-y="-15.897709"
         d="m 185.7776,230.82426 -88.698058,-1e-5 44.349028,-76.81477 z"
         inkscape:randomized="0"
         inkscape:rounded="0"
         inkscape:flatsided="true"
         sodipodi:arg2="1.5707963"
         sodipodi:arg1="0.52359878"
         sodipodi:r2="25.604925"
         sodipodi:r1="51.20985"
         sodipodi:cy="205.21933"
         sodipodi:cx="141.42857"
         sodipodi:sides="3"
         id="path4142"
         style="opacity:1;fill:#939dac;fill-opacity:1;fill-rule:evenodd;stroke:#b3b3b3;stroke-width:0.70201033;stroke-linecap:round;stroke-linejoin:miter;stroke-miterlimit:4;stroke-dasharray:none;stroke-dashoffset:0;stroke-opacity:1"
         sodipodi:type="star" />
      <path
         sodipodi:type="star"
         style="opacity:1;fill:#939dac;fill-opacity:1;fill-rule:evenodd;stroke:#b3b3b3;stroke-width:0.70219874;stroke-linecap:round;stroke-linejoin:miter;stroke-miterlimit:4;stroke-dasharray:none;stroke-dashoffset:0;stroke-opacity:1"
         id="path4144"
         sodipodi:sides="3"
         sodipodi:cx="141.42857"
         sodipodi:cy="205.21933"
         sodipodi:r1="51.20985"
         sodipodi:r2="25.604925"
         sodipodi:arg1="0.52359878"
         sodipodi:arg2="1.5707963"
         inkscape:flatsided="true"
         inkscape:rounded="0"
         inkscape:randomized="0"
         d="m 185.7776,230.82426 -88.698058,-1e-5 44.349028,-76.81477 z"
         inkscape:transform-center-y="-11.135796"
         transform="matrix(1.2254841,0,0,0.86981669,109.53868,32.355627)" />
      <path
         style="fill:#ffffff;fill-rule:evenodd;stroke:#b3b3b3;stroke-width:0.43887419;stroke-linecap:butt;stroke-linejoin:miter;stroke-miterlimit:4;stroke-dasharray:none;stroke-opacity:1"
         d="m 145.08999,106.45409 -20.26786,40.56728 10.80357,-10.38871 6.78572,9.28571 9.28571,-10.35714 12.87787,10.12627 z"
         id="path4146"
         inkscape:connector-curvature="0"
         sodipodi:nodetypes="ccccccc" />
      <path
         inkscape:connector-curvature="0"
         id="path4148"
         d="m 210.80426,137.88266 -20.625,33.39285 11.51785,-7.05357 7.76787,9.91071 9.99999,-8.08035 12.67857,6.51786 z"
         style="fill:#ffffff;fill-rule:evenodd;stroke:#b3b3b3;stroke-width:0.43887419;stroke-linecap:butt;stroke-linejoin:miter;stroke-miterlimit:4;stroke-dasharray:none;stroke-opacity:1"
         sodipodi:nodetypes="ccccccc" />
      <path
         inkscape:connector-curvature="0"
         id="path4150"
         d="m 282.8456,166.79828 -18.4375,22.56696 11.29464,-4.26339 6.07144,7.49999 8.6607,-7.18749 9.08482,1.78572 z"
         style="fill:#ffffff;fill-rule:evenodd;stroke:#b3b3b3;stroke-width:0.43887419;stroke-linecap:butt;stroke-linejoin:miter;stroke-miterlimit:4;stroke-dasharray:none;stroke-opacity:1"
         sodipodi:nodetypes="ccccccc" />
    </g>
    <g
       id="g4250"
       inkscape:export-xdpi="97.02787"
       inkscape:export-ydpi="97.02787"
       transform="matrix(1,0,0,1.2979559,-16,0.88072664)">
      <path
         id="path4172"
         d="m 653.95703,233.13086 0,-37.50195 -44.81641,-89.3125 -63.63476,126.81445 108.45117,0 z"
         style="opacity:1;fill:#939dac;fill-opacity:1;fill-rule:evenodd;stroke:#b3b3b3;stroke-width:1.08075607;stroke-linecap:round;stroke-linejoin:miter;stroke-miterlimit:4;stroke-dasharray:none;stroke-dashoffset:0;stroke-opacity:1"
         inkscape:connector-curvature="0" />
      <path
         sodipodi:type="star"
         style="opacity:1;fill:#939dac;fill-opacity:1;fill-rule:evenodd;stroke:#b3b3b3;stroke-width:0.70201033;stroke-linecap:round;stroke-linejoin:miter;stroke-miterlimit:4;stroke-dasharray:none;stroke-dashoffset:0;stroke-opacity:1"
         id="path4174"
         sodipodi:sides="3"
         sodipodi:cx="141.42857"
         sodipodi:cy="205.21933"
         sodipodi:r1="51.20985"
         sodipodi:r2="25.604925"
         sodipodi:arg1="0.52359878"
         sodipodi:arg2="1.5707963"
         inkscape:flatsided="true"
         inkscape:rounded="0"
         inkscape:randomized="0"
         d="m 185.7776,230.82426 -88.698058,-1e-5 44.349028,-76.81477 z"
         inkscape:transform-center-y="-15.897709"
         transform="matrix(-1.3382261,0,0,1.2417689,732.68979,-53.499965)" />
      <path
         transform="matrix(-1.2254841,0,0,0.86981669,644.60199,32.355627)"
         inkscape:transform-center-y="-11.135796"
         d="m 185.7776,230.82426 -88.698058,-1e-5 44.349028,-76.81477 z"
         inkscape:randomized="0"
         inkscape:rounded="0"
         inkscape:flatsided="true"
         sodipodi:arg2="1.5707963"
         sodipodi:arg1="0.52359878"
         sodipodi:r2="25.604925"
         sodipodi:r1="51.20985"
         sodipodi:cy="205.21933"
         sodipodi:cx="141.42857"
         sodipodi:sides="3"
         id="path4176"
         style="opacity:1;fill:#939dac;fill-opacity:1;fill-rule:evenodd;stroke:#b3b3b3;stroke-width:0.70219874;stroke-linecap:round;stroke-linejoin:miter;stroke-miterlimit:4;stroke-dasharray:none;stroke-dashoffset:0;stroke-opacity:1"
         sodipodi:type="star" />
      <path
         sodipodi:nodetypes="ccccccc"
         inkscape:connector-curvature="0"
         id="path4178"
         d="m 609.05068,106.45409 20.26786,40.56728 -10.80357,-10.38871 -6.78572,9.28571 -9.28571,-10.35714 -12.87787,10.12627 z"
         style="fill:#ffffff;fill-rule:evenodd;stroke:#b3b3b3;stroke-width:0.43887419;stroke-linecap:butt;stroke-linejoin:miter;stroke-miterlimit:4;stroke-dasharray:none;stroke-opacity:1" />
      <path
         sodipodi:nodetypes="ccccccc"
         style="fill:#ffffff;fill-rule:evenodd;stroke:#b3b3b3;stroke-width:0.43887419;stroke-linecap:butt;stroke-linejoin:miter;stroke-miterlimit:4;stroke-dasharray:none;stroke-opacity:1"
         d="m 543.33641,137.88266 20.625,33.39285 -11.51785,-7.05357 -7.76787,9.91071 -9.99999,-8.08035 -12.67857,6.51786 z"
         id="path4180"
         inkscape:connector-curvature="0" />
      <path
         sodipodi:nodetypes="ccccccc"
         style="fill:#ffffff;fill-rule:evenodd;stroke:#b3b3b3;stroke-width:0.43887419;stroke-linecap:butt;stroke-linejoin:miter;stroke-miterlimit:4;stroke-dasharray:none;stroke-opacity:1"
         d="m 471.29507,166.79828 18.4375,22.56696 -11.29464,-4.26339 -6.07144,7.49999 -8.6607,-7.18749 -9.08482,1.78572 z"
         id="path4182"
         inkscape:connector-curvature="0" />
    </g>
    <path
       style="color:#000000;clip-rule:nonzero;display:inline;overflow:visible;visibility:visible;opacity:1;isolation:auto;mix-blend-mode:normal;color-interpolation:sRGB;color-interpolation-filters:linearRGB;solid-color:#000000;solid-opacity:1;fill:#ffffff;fill-opacity:1;fill-rule:nonzero;stroke:#00caca;stroke-width:0.2;stroke-linecap:butt;stroke-linejoin:miter;stroke-miterlimit:4;stroke-dasharray:none;stroke-dashoffset:0;stroke-opacity:1;color-rendering:auto;image-rendering:auto;shape-rendering:auto;text-rendering:auto;enable-background:accumulate"
       d="m 197.57143,110.27237 a 20.714285,24.924885 0 0 0 -19.22266,15.68811 16.428572,16.809806 0 0 0 -4.34961,-0.61815 16.428572,16.809806 0 0 0 -16.42773,16.81025 16.428572,16.809806 0 0 0 16.42773,16.81026 16.428572,16.809806 0 0 0 10.80469,-4.17482 20.714285,24.924885 0 0 0 12.76758,5.33503 20.714285,24.924885 0 0 0 9.02148,-2.51061 25.714285,16.230159 0 0 0 22.40625,8.30529 25.714285,16.230159 0 0 0 25.71485,-16.23016 25.714285,16.230159 0 0 0 -25.71485,-16.23016 25.714285,16.230159 0 0 0 -10.7207,1.49939 20.714285,24.924885 0 0 0 -20.70703,-24.68443 z"
       id="path4258"
       inkscape:export-xdpi="97.02787"
       inkscape:export-ydpi="97.02787"
       inkscape:connector-curvature="0" />
    <path
       id="path4265"
       d="m 562.09985,73.189411 a 20.714285,24.924885 0 0 1 19.22266,15.68809 16.428572,16.809806 0 0 1 4.34961,-0.61814 16.428572,16.809806 0 0 1 16.42773,16.810259 16.428572,16.809806 0 0 1 -16.42773,16.81026 16.428572,16.809806 0 0 1 -10.80469,-4.17482 20.714285,24.924885 0 0 1 -12.76758,5.33503 20.714285,24.924885 0 0 1 -9.02148,-2.51061 25.714285,16.230159 0 0 1 -22.40625,8.30528 25.714285,16.230159 0 0 1 -25.71485,-16.23016 25.714285,16.230159 0 0 1 25.71485,-16.230159 25.714285,16.230159 0 0 1 10.7207,1.49939 20.714285,24.924885 0 0 1 20.70703,-24.68442 z"
       style="color:#000000;clip-rule:nonzero;display:inline;overflow:visible;visibility:visible;opacity:1;isolation:auto;mix-blend-mode:normal;color-interpolation:sRGB;color-interpolation-filters:linearRGB;solid-color:#000000;solid-opacity:1;fill:#ffffff;fill-opacity:1;fill-rule:nonzero;stroke:#00caca;stroke-width:0.2;stroke-linecap:butt;stroke-linejoin:miter;stroke-miterlimit:4;stroke-dasharray:none;stroke-dashoffset:0;stroke-opacity:1;color-rendering:auto;image-rendering:auto;shape-rendering:auto;text-rendering:auto;enable-background:accumulate"
       inkscape:connector-curvature="0"
       inkscape:export-xdpi="97.02787"
       inkscape:export-ydpi="97.02787" />
    <rect
       style="opacity:1;fill:#939dac;fill-opacity:1;fill-rule:evenodd;stroke:none;stroke-width:0.80000001;stroke-linecap:round;stroke-linejoin:miter;stroke-miterlimit:4;stroke-dasharray:none;stroke-dashoffset:0;stroke-opacity:1"
       id="rect4228"
       width="556.53571"
       height="42.776115"
       x="82.037285"
       y="303.11322"
       inkscape:export-xdpi="97.02787"
       inkscape:export-ydpi="97.02787" />
    <path
       style="color:#000000;clip-rule:nonzero;display:inline;overflow:visible;visibility:visible;opacity:1;isolation:auto;mix-blend-mode:normal;color-interpolation:sRGB;color-interpolation-filters:linearRGB;solid-color:#000000;solid-opacity:1;fill:#ffffff;fill-opacity:1;fill-rule:nonzero;stroke:#00caca;stroke-width:0.2;stroke-linecap:butt;stroke-linejoin:miter;stroke-miterlimit:4;stroke-dasharray:none;stroke-dashoffset:0;stroke-opacity:1;color-rendering:auto;image-rendering:auto;shape-rendering:auto;text-rendering:auto;enable-background:accumulate"
       d="m 361.40521,181.47429 a 15.714286,18.214285 0 0 0 -15.24414,13.89062 23.214285,17.142857 0 0 0 -4.39843,-0.31836 23.214285,17.142857 0 0 0 -23.21289,17.14258 23.214285,17.142857 0 0 0 21.89843,17.09375 22.857143,14.642858 0 0 0 21.67188,10.04882 22.857143,14.642858 0 0 0 21.66211,-10.01171 29.285715,14.642858 0 0 0 9.05273,0.72656 29.285715,14.642858 0 0 0 29.28516,-14.64258 29.285715,14.642858 0 0 0 -18.10156,-13.52929 19.285715,8.9285717 0 0 0 -19.04102,-7.54297 19.285715,8.9285717 0 0 0 -8.35156,0.88867 15.714286,18.214285 0 0 0 -15.22071,-13.74609 z"
       id="path4249"
       inkscape:connector-curvature="0"
       inkscape:export-xdpi="97.02787"
       inkscape:export-ydpi="97.02787" />
    <path
       style="color:#000000;clip-rule:nonzero;display:inline;overflow:visible;visibility:visible;opacity:1;isolation:auto;mix-blend-mode:normal;color-interpolation:sRGB;color-interpolation-filters:linearRGB;solid-color:#000000;solid-opacity:1;fill:#ffffff;fill-opacity:1;fill-rule:nonzero;stroke:#00caca;stroke-width:0.2;stroke-linecap:butt;stroke-linejoin:miter;stroke-miterlimit:4;stroke-dasharray:none;stroke-dashoffset:0;stroke-opacity:1;color-rendering:auto;image-rendering:auto;shape-rendering:auto;text-rendering:auto;enable-background:accumulate"
       d="m 369.42858,82.532096 a 42.426407,15.152288 0 0 0 -42.42578,15.152344 42.426407,15.152288 0 0 0 0.0762,0.76758 36.870567,10.606602 0 0 0 -13.71289,-0.76758 36.870567,10.606602 0 0 0 -36.87109,10.60547 36.870567,10.606602 0 0 0 36.87109,10.60742 36.870567,10.606602 0 0 0 0.73633,-0.008 45.456863,10.101525 0 0 0 -0.23242,1.01758 45.456863,10.101525 0 0 0 45.45703,10.10156 45.456863,10.101525 0 0 0 35.11718,-3.69531 44.95179,10.101525 0 0 0 15.89649,0.66406 44.95179,10.101525 0 0 0 44.95117,-10.09961 44.95179,10.101525 0 0 0 -12.92578,-7.08594 44.446712,5.0507627 0 0 0 41.20898,-5.03711 44.446712,5.0507627 0 0 0 -44.44531,-5.05078 44.446712,5.0507627 0 0 0 -28.23828,1.1543 42.426407,15.152288 0 0 0 0.96289,-3.17383 42.426407,15.152288 0 0 0 -42.42578,-15.152344 z"
       id="path4260"
       inkscape:connector-curvature="0"
       inkscape:export-xdpi="97.02787"
       inkscape:export-ydpi="97.02787" />
  </g>
</svg>
